<?xml version="1.0" encoding="utf-8"?>
<!-- Generator: Adobe Illustrator 22.0.1, SVG Export Plug-In . SVG Version: 6.00 Build 0)  -->
<svg version="1.1" id="Layer_1" xmlns="http://www.w3.org/2000/svg" xmlns:xlink="http://www.w3.org/1999/xlink" x="0px" y="0px"
	 viewBox="0 0 214 214" style="enable-background:new 0 0 214 214;" xml:space="preserve">
<style type="text/css">
	.st0{fill:#383838;}
</style>
<path class="st0" d="M148.8,114.5c1-0.5,2-0.9,3-1.4c1.1-0.6,2.2-1.1,3.3-1.7c1.6-0.9,3.1-1.8,4.6-2.8c1-0.6,1.9-1.2,2.9-1.8
	c1.6-1.1,3.2-2.3,4.7-3.5c0.8-0.6,1.5-1.1,2.2-1.7c4.5-3.7,8.6-7.8,12.3-12.3c0.6-0.7,1.1-1.5,1.7-2.3c1.2-1.5,2.4-3.1,3.5-4.7
	c0.6-0.9,1.2-1.9,1.8-2.9c0.9-1.5,1.9-3,2.8-4.6c0.6-1.1,1.1-2.2,1.7-3.3c0.5-1,1-2,1.4-3c-9-4.7-17.4-10.5-25.1-17
	c-0.6-0.2-30.8-30.2-30.8-30.2l-37.3,37.3c0,0,27.2,27.3,29.3,29.8C137.9,96.4,143.9,105.1,148.8,114.5L148.8,114.5z M41.9,135.7
	c-14.8,10.4-27.5,23.4-37.5,38.4L0,180.6l15.9,15.9l2.9-4.4c10.6-15.9,24-29.8,39.7-40.8l24.7-17.4c15.7-11,29-25,39.3-41.2l0.9-1.5
	c-0.2-0.2-0.3-0.3-0.5-0.5c-1.3-1.4-2.6-2.8-4-4.2l-11.3-11.3l-0.1,0.1c-10.8,17.1-25,31.8-41.5,43.4L41.9,135.7z M214,76.9
	c-4.3-1.5-8.4-3.2-12.4-5c-0.5,1.1-1.1,2.1-1.6,3.1c-0.6,1.2-1.2,2.3-1.8,3.5c-0.9,1.7-1.9,3.3-3,5c-0.7,1-1.3,2.1-2,3.1
	c-1.2,1.7-2.5,3.4-3.8,5.1c-0.6,0.8-1.2,1.7-1.9,2.5c-1.9,2.4-4,4.6-6.1,6.8c-0.1,0.1-0.1,0.1-0.2,0.2c-2.2,2.2-4.5,4.3-6.9,6.2
	c-0.8,0.7-1.7,1.3-2.5,1.9c-1.6,1.3-3.3,2.5-5,3.7c-1,0.7-2.1,1.3-3.2,2c-1.6,1-3.2,2-4.9,2.9c-1.2,0.6-2.4,1.2-3.5,1.8
	c-1,0.5-2,1.1-3.1,1.6c1.8,3.9,3.5,8.1,5,12.3C183.6,124.1,204.4,103.3,214,76.9z M154.9,26.7l12.2,12.2c1.3,1.2,2.6,2.4,3.9,3.6
	l8.9-8.9l-16-16L154.9,26.7z"/>
</svg>
