<?xml version="1.0" encoding="utf-8"?>
<!-- Generator: Adobe Illustrator 22.0.1, SVG Export Plug-In . SVG Version: 6.00 Build 0)  -->
<svg version="1.1" id="Layer_1" xmlns="http://www.w3.org/2000/svg" xmlns:xlink="http://www.w3.org/1999/xlink" x="0px" y="0px"
	 viewBox="0 0 214 214" style="enable-background:new 0 0 214 214;" xml:space="preserve">
<style type="text/css">
	.st0{fill:#383838;}
</style>
<path class="st0" d="M210.3,88.5c-2,0-3.7,2.1-3.7,4.6v27.7c0,2.6,1.6,4.6,3.7,4.6s3.7-2.1,3.7-4.6V93.2
	C214,90.6,212.4,88.5,210.3,88.5z M3.7,88.5c-2,0-3.7,2.1-3.7,4.6c0,7.1,0,20.6,0,27.7c0,2.6,1.6,4.6,3.7,4.6s3.7-2.1,3.7-4.6
	c0-7.1,0-20.6,0-27.7C7.4,90.6,5.7,88.5,3.7,88.5z M49,46.6c-6.8,0-12.3,6.2-12.3,13.9c0,23.3,0,69.8,0,93.1
	c0,7.7,5.5,13.9,12.3,13.9s12.3-6.2,12.3-13.9v-35.3h89.4v35.3c0,7.7,5.5,13.9,12.3,13.9s12.3-6.2,12.3-13.9V60.5
	c0-7.7-5.5-13.9-12.3-13.9s-12.3,6.2-12.3,13.9v35.3H61.3V60.5C61.3,52.8,55.8,46.6,49,46.6z M191.6,65.1h-1.2
	c-5.1,0-9.3,4.1-9.3,9.3c0,0,0,0,0,0v65.2c0,5.1,4.1,9.3,9.3,9.3h1.2c5.1,0,9.3-4.1,9.3-9.2c0,0,0,0,0,0c0-16.1,0-49.1,0-65.2
	C200.8,69.3,196.7,65.1,191.6,65.1C191.6,65.1,191.6,65.1,191.6,65.1z M22.3,65.1h-1.2c-5.1,0-9.3,4.1-9.3,9.2c0,0,0,0,0,0v65.2
	c0,5.1,4.1,9.3,9.3,9.3c0,0,0,0,0,0h1.2c5.1,0,9.3-4.1,9.3-9.2c0,0,0,0,0,0V74.4C31.6,69.3,27.4,65.1,22.3,65.1
	C22.3,65.1,22.3,65.1,22.3,65.1z"/>
</svg>
