<?xml version="1.0" encoding="utf-8"?>
<!-- Generator: Adobe Illustrator 22.0.1, SVG Export Plug-In . SVG Version: 6.00 Build 0)  -->
<svg version="1.1" id="Layer_1" xmlns="http://www.w3.org/2000/svg" xmlns:xlink="http://www.w3.org/1999/xlink" x="0px" y="0px"
	 viewBox="0 0 214 214" style="enable-background:new 0 0 214 214;" xml:space="preserve">
<style type="text/css">
	.st0{fill:#383838;}
</style>
<path class="st0" d="M185.7,138.4c1.5,13.9,0.9,28-1.8,41.8c-0.4,1.8-1.8,3.2-3.6,3.6c-13.7,2.7-27.8,3.4-41.8,2.1
	C139.2,160,159.9,139.2,185.7,138.4z M28.1,75.2c-1.3-13.8-0.6-27.8,2.1-41.4c0.4-1.8,1.8-3.2,3.6-3.6c13.6-2.7,27.6-3.4,41.5-2.1
	C74.4,53.8,53.8,74.4,28.1,75.2L28.1,75.2z M84.6,29.3c25.6,3.9,50.8,14.3,68.4,31.8c17.2,17.2,27.6,42.5,31.6,68
	c-30,1.4-54,25.5-55.3,55.5c-25.5-3.9-50.6-14.3-68.1-31.8c-17.6-17.6-28-42.7-31.9-68.4C59.2,83.1,83.1,59.2,84.6,29.3z
	 M75.5,100.8c1.8,1.8,4.8,1.8,6.6,0c0,0,0,0,0,0l6.2-6.2l12.3,12.3l-6.1,6.1c-1.8,1.8-1.8,4.8,0,6.6s4.8,1.8,6.6,0l6.2-6.2
	l12.3,12.3l-6.1,6.1c-1.8,1.8-1.8,4.8,0,6.6c1.8,1.8,4.8,1.8,6.6,0c0,0,0,0,0,0l6.2-6.1l6.2,6.1c1.8,1.8,4.8,1.8,6.6,0
	s1.8-4.8,0-6.6l0,0l-6.1-6.1l6.1-6.1c1.8-1.8,1.8-4.8,0-6.6c-1.8-1.8-4.7-1.8-6.6,0l-6.2,6.2L113.7,107l6.1-6.1
	c1.8-1.8,1.8-4.8,0-6.6s-4.8-1.8-6.6,0l-6.2,6.2L94.8,88.1l6.2-6.1c1.8-1.8,1.8-4.8,0-6.6c-1.8-1.8-4.8-1.8-6.6,0l-6.2,6.2L82,75.4
	c-1.8-1.8-4.8-1.8-6.6,0c-1.8,1.8-1.8,4.8,0,6.6l6.1,6.1l-6.1,6.1C73.6,96.1,73.6,99,75.5,100.8L75.5,100.8z"/>
</svg>
