<?xml version="1.0" encoding="utf-8"?>
<!-- Generator: Adobe Illustrator 22.0.1, SVG Export Plug-In . SVG Version: 6.00 Build 0)  -->
<svg version="1.1" id="Layer_1" xmlns="http://www.w3.org/2000/svg" xmlns:xlink="http://www.w3.org/1999/xlink" x="0px" y="0px"
	 viewBox="0 0 214 214" style="enable-background:new 0 0 214 214;" xml:space="preserve">
<style type="text/css">
	.st0{fill:#383838;}
</style>
<path class="st0" d="M156.8,11.1H57.2c-3.1,0-5.6,2.5-5.6,5.6s2.5,5.6,5.6,5.6h44.2v16.3c-6.4,2.2-10.9,8-11.5,14.8
	c-15.5-0.2-28.3,12.2-28.5,27.7c0,0.1,0,0.3,0,0.4v6h91.4v-6c0-15.5-12.6-28.1-28.1-28.1c-0.1,0-0.3,0-0.4,0
	c-0.6-6.8-5.1-12.6-11.5-14.8V22.4h44.2c3.1,0,5.6-2.5,5.6-5.6S159.9,11.1,156.8,11.1z M101.2,53.5c0.8-3.2,4.1-5.1,7.3-4.3
	c2.1,0.5,3.7,2.2,4.3,4.3H101.2z M61.3,98.8h91.4v58.8H61.3V98.8z M61.3,174.8c0,15.5,12.6,28.1,28.1,28.1h35.2
	c15.5,0,28.1-12.6,28.1-28.1v-6H61.3V174.8z"/>
</svg>
