<?xml version="1.0" encoding="utf-8"?>
<!-- Generator: Adobe Illustrator 22.0.1, SVG Export Plug-In . SVG Version: 6.00 Build 0)  -->
<svg version="1.1" id="Layer_1" xmlns="http://www.w3.org/2000/svg" xmlns:xlink="http://www.w3.org/1999/xlink" x="0px" y="0px"
	 viewBox="0 0 80 80" style="enable-background:new 0 0 80 80;" xml:space="preserve">
<style type="text/css">
	.st0{fill:#383838;}
</style>
<path id="search_1_" class="st0" d="M77.4,72.9l-19-19.8c11.5-13.7,9.7-34-4-45.5s-34-9.7-45.5,4s-9.7,34,4,45.5
	c5.8,4.9,13.2,7.6,20.8,7.6c6.6,0,13.1-2,18.5-5.8l19.2,20c1.6,1.7,4.3,1.8,6,0.2C79,77.3,79.1,74.6,77.4,72.9
	C77.5,72.9,77.5,72.9,77.4,72.9L77.4,72.9z M33.7,8.4c13.2,0,23.9,10.7,23.9,23.9S46.9,56.2,33.7,56.2S9.8,45.5,9.8,32.3l0,0
	C9.8,19.1,20.5,8.4,33.7,8.4z"/>
</svg>
